<svg width="24" height="24" viewBox="0 0 24 24" fill="none" xmlns="http://www.w3.org/2000/svg">
<path d="M8.99997 8.25C8.58576 8.25 8.24997 8.58578 8.24997 9C8.24997 9.41421 8.58576 9.75 8.99997 9.75H15C15.4142 9.75 15.75 9.41421 15.75 9C15.75 8.58578 15.4142 8.25 15 8.25H8.99997Z" fill="#2D264B"/>
<path fill-rule="evenodd" clip-rule="evenodd" d="M11.8381 2.24998C10.1319 2.24971 9.09064 2.24955 8.22312 2.53142C6.47261 3.1002 5.10017 4.47263 4.5314 6.22315C4.24952 7.09067 4.24969 8.13188 4.24996 9.83816L4.24997 17.4214C4.24997 18.3511 4.24996 19.0942 4.29503 19.6664C4.33945 20.2302 4.43391 20.765 4.72016 21.1894C5.29457 22.0409 6.29567 22.5014 7.31604 22.3833C7.82453 22.3245 8.29206 22.0482 8.74906 21.715C9.21285 21.3768 9.77704 20.8932 10.4829 20.2881L10.5088 20.266C11.1995 19.6739 11.3962 19.5218 11.5835 19.4556C11.853 19.3603 12.147 19.3603 12.4164 19.4556C12.6038 19.5218 12.8004 19.6739 13.4912 20.266L13.517 20.2881C14.2229 20.8932 14.7871 21.3768 15.2509 21.715C15.7079 22.0482 16.1754 22.3245 16.6839 22.3833C17.7043 22.5014 18.7054 22.0409 19.2798 21.1894C19.566 20.765 19.6605 20.2302 19.7049 19.6664C19.75 19.0942 19.75 18.3511 19.75 17.4214L19.75 9.83817C19.7503 8.13189 19.7504 7.09067 19.4685 6.22315C18.8998 4.47263 17.5273 3.1002 15.7768 2.53142C14.9093 2.24955 13.8681 2.24971 12.1618 2.24998H11.8381ZM8.68665 3.95801C9.29836 3.75925 10.0803 3.75 12 3.75C13.9196 3.75 14.7016 3.75925 15.3133 3.95801C16.6072 4.37841 17.6216 5.39282 18.042 6.68668C18.2407 7.29839 18.25 8.08034 18.25 10V17.3874C18.25 18.3588 18.2494 19.0425 18.2095 19.5486C18.1685 20.0701 18.092 20.268 18.0363 20.3506C17.7752 20.7376 17.3201 20.9469 16.8563 20.8933C16.7574 20.8818 16.5573 20.8111 16.1346 20.5029C15.7244 20.2038 15.205 19.7593 14.4674 19.1271L14.3682 19.042C13.8261 18.5764 13.4033 18.2134 12.9162 18.0413C12.3233 17.8318 11.6766 17.8318 11.0838 18.0413C10.5967 18.2134 10.1739 18.5764 9.63179 19.042L9.53257 19.1271C8.79496 19.7593 8.27555 20.2038 7.86532 20.5029C7.44267 20.8111 7.24258 20.8818 7.14364 20.8933C6.67984 20.9469 6.22479 20.7376 5.96369 20.3506C5.90799 20.268 5.83148 20.0701 5.7904 19.5486C5.75053 19.0425 5.74997 18.3588 5.74997 17.3874V10C5.74997 8.08034 5.75923 7.29839 5.95798 6.68668C6.37838 5.39282 7.39279 4.37841 8.68665 3.95801Z" fill="#2D264B"/>
</svg>
