<svg width="24" height="24" viewBox="0 0 24 24" fill="none" xmlns="http://www.w3.org/2000/svg">
<path d="M3 2.5C3.5 2 4.5 2.5 4.5 2.5L5.25342 3.62995C5.35041 3.55168 5.44879 3.47506 5.54852 3.40014C7.34544 2.05008 9.58034 1.24976 12 1.24976C17.9371 1.24976 22.75 6.06269 22.75 11.9998C22.75 17.9368 17.9371 22.7498 12 22.7498C6.06294 22.7498 1.25 17.9368 1.25 11.9998C1.25 11.5855 1.58579 11.2498 2 11.2498C2.41421 11.2498 2.75 11.5855 2.75 11.9998C2.75 17.1084 6.89137 21.2498 12 21.2498C17.1086 21.2498 21.25 17.1084 21.25 11.9998C21.25 6.89112 17.1086 2.74976 12 2.74976C9.91636 2.74976 7.99559 3.43779 6.44953 4.59938C6.35439 4.67086 6.26067 4.74413 6.16843 4.81914C6.69929 5.08429 7.78472 6.31493 7.78636 6.68355C7.78821 7.09776 7.30804 7.41381 6.89384 7.41566H6.89383C6.13896 7.41904 5.50939 7.42187 5.0032 7.36659C4.47227 7.30861 3.98294 7.17902 3.55786 6.85005C3.49008 6.79759 3.42487 6.74203 3.36242 6.68355C3.25638 6.58424 3.15834 6.47655 3.06926 6.36144C2.74029 5.93636 2.61069 5.44703 2.55271 4.9161C2.49744 4.40992 2.49578 4.75462 2.49917 3.99976L2.5 3.5C2.51844 2.92491 3 2.5 3 2.5Z" fill="#2D264B"/>
<path fill-rule="evenodd" clip-rule="evenodd" d="M11.7514 6.33472C8.53548 6.33472 5.92847 8.94173 5.92847 12.1576C5.92847 15.3735 8.53548 17.9805 11.7514 17.9805C14.9673 17.9805 17.5743 15.3735 17.5743 12.1576C17.5743 8.94173 14.9673 6.33472 11.7514 6.33472ZM12.1576 9.99097C12.1576 9.7666 11.9757 9.58472 11.7514 9.58472C11.527 9.58472 11.3451 9.7666 11.3451 9.99097V11.4672C11.3451 11.7564 11.3451 12.0023 11.3652 12.2064C11.3867 12.4239 11.4332 12.6254 11.5447 12.8186C11.6563 13.0118 11.8075 13.1529 11.9851 13.2801C12.1518 13.3996 12.3648 13.5226 12.6153 13.6671L12.9556 13.8636C13.1499 13.9758 13.3984 13.9092 13.5105 13.7149C13.6227 13.5206 13.5561 13.2722 13.3618 13.16L13.0379 12.9729C12.7667 12.8164 12.5888 12.7131 12.4584 12.6197C12.3354 12.5315 12.2819 12.4705 12.2483 12.4124C12.2148 12.3542 12.1887 12.2774 12.1738 12.1267C12.1581 11.9672 12.1576 11.7615 12.1576 11.4484L12.1576 9.99097Z" fill="#2D264B"/>
<path fill-rule="evenodd" clip-rule="evenodd" d="M11.7514 6.33472C8.53548 6.33472 5.92847 8.94173 5.92847 12.1576C5.92847 15.3735 8.53548 17.9805 11.7514 17.9805C14.9673 17.9805 17.5743 15.3735 17.5743 12.1576C17.5743 8.94173 14.9673 6.33472 11.7514 6.33472ZM12.1576 9.99097C12.1576 9.7666 11.9757 9.58472 11.7514 9.58472C11.527 9.58472 11.3451 9.7666 11.3451 9.99097V11.4672C11.3451 11.7564 11.3451 12.0023 11.3652 12.2064C11.3867 12.4239 11.4332 12.6254 11.5447 12.8186C11.6563 13.0118 11.8075 13.1529 11.9851 13.2801C12.1518 13.3996 12.3648 13.5226 12.6153 13.6671L12.9556 13.8636C13.1499 13.9758 13.3984 13.9092 13.5105 13.7149C13.6227 13.5206 13.5561 13.2722 13.3618 13.16L13.0379 12.9729C12.7667 12.8164 12.5888 12.7131 12.4584 12.6197C12.3354 12.5315 12.2819 12.4705 12.2483 12.4124C12.2148 12.3542 12.1887 12.2774 12.1738 12.1267C12.1581 11.9672 12.1576 11.7615 12.1576 11.4484L12.1576 9.99097Z" fill="#2D264B"/>
</svg>
