<svg width="20" height="20" viewBox="0 0 20 20" fill="none" xmlns="http://www.w3.org/2000/svg">
<mask id="path-1-inside-1_1550_25856" fill="white">
<path fill-rule="evenodd" clip-rule="evenodd" d="M7.5 1.04102C7.84518 1.04102 8.125 1.32084 8.125 1.66602V2.71652C8.6827 2.70768 9.30236 2.70768 9.99079 2.70768H10.0092C10.6976 2.70768 11.3173 2.70768 11.875 2.71652V1.66602C11.875 1.32084 12.1548 1.04102 12.5 1.04102C12.8452 1.04102 13.125 1.32084 13.125 1.66602V2.76067C14.3849 2.83965 15.3529 3.0438 16.1498 3.62281C16.5566 3.91836 16.9143 4.27609 17.2099 4.68288C17.6981 5.35481 17.9167 6.1418 18.0219 7.11308C18.125 8.06486 18.125 9.26452 18.125 10.795V10.8422C18.125 11.8088 18.125 12.6398 18.1005 13.3541C18.047 14.9153 17.8781 16.0628 17.2099 16.9825C16.9143 17.3893 16.5566 17.747 16.1498 18.0426C15.2301 18.7108 14.0826 18.8797 12.5214 18.9332C11.807 18.9577 10.9758 18.9577 10.009 18.9577H9.96227C8.43184 18.9577 7.23217 18.9577 6.2804 18.8546C5.30912 18.7493 4.52213 18.5307 3.8502 18.0426C3.44341 17.747 3.08568 17.3893 2.79013 16.9825C2.30194 16.3106 2.08334 15.5236 1.97811 14.5523C1.87499 13.6005 1.87499 12.4008 1.875 10.8704V10.795C1.87499 9.26453 1.87499 8.06486 1.97811 7.11308C2.08334 6.1418 2.30194 5.35481 2.79013 4.68288C3.08568 4.27609 3.44341 3.91836 3.8502 3.62281C4.64713 3.0438 5.61507 2.83965 6.875 2.76067V1.66602C6.875 1.32084 7.15482 1.04102 7.5 1.04102ZM6.875 4.01372C5.73996 4.09178 5.08481 4.27089 4.58493 4.63408C4.28426 4.85253 4.01985 5.11694 3.8014 5.41761C3.49383 5.84095 3.31454 6.38279 3.22083 7.24772C3.12586 8.12434 3.125 9.25637 3.125 10.8327C3.125 12.409 3.12586 13.541 3.22083 14.4176C3.31454 15.2826 3.49383 15.8244 3.8014 16.2478C4.01985 16.5484 4.28426 16.8128 4.58493 17.0313C5.00826 17.3389 5.55011 17.5181 6.41504 17.6118C7.29166 17.7068 8.42369 17.7077 10 17.7077C10.707 17.7077 11.3265 17.7076 11.8765 17.6987C11.8802 17.3031 11.8925 17.0119 11.934 16.7498C12.2587 14.6994 13.8668 13.0914 15.9171 12.7667C16.1793 12.7252 16.4704 12.7128 16.866 12.7092C16.875 12.1592 16.875 11.5396 16.875 10.8327C16.875 9.25637 16.8741 8.12434 16.7792 7.24772C16.6855 6.38279 16.5062 5.84095 16.1986 5.41761C15.9802 5.11694 15.7157 4.85253 15.4151 4.63408C14.9152 4.27089 14.26 4.09178 13.125 4.01372V4.16602C13.125 4.51119 12.8452 4.79102 12.5 4.79102C12.1548 4.79102 11.875 4.51119 11.875 4.16602V3.96667C11.3253 3.95772 10.7063 3.95768 10 3.95768C9.29369 3.95768 8.67466 3.95772 8.125 3.96667V4.16602C8.125 4.51119 7.84518 4.79102 7.5 4.79102C7.15482 4.79102 6.875 4.51119 6.875 4.16602V4.01372ZM16.8188 13.96C16.4813 13.9639 16.2835 13.9742 16.1126 14.0013C14.5972 14.2413 13.4086 15.4299 13.1686 16.9453C13.1415 17.1162 13.1312 17.314 13.1273 17.6515C14.2609 17.5733 14.9155 17.3942 15.4151 17.0313C15.7157 16.8128 15.9802 16.5484 16.1986 16.2478C16.5615 15.7482 16.7407 15.0936 16.8188 13.96Z"/>
<path d="M6.66667 7.49935C6.66667 7.95959 6.29357 8.33268 5.83333 8.33268C5.3731 8.33268 5 7.95959 5 7.49935C5 7.03911 5.3731 6.66602 5.83333 6.66602C6.29357 6.66602 6.66667 7.03911 6.66667 7.49935Z"/>
<path d="M6.66667 10.8327C6.66667 11.2929 6.29357 11.666 5.83333 11.666C5.3731 11.666 5 11.2929 5 10.8327C5 10.3724 5.3731 9.99935 5.83333 9.99935C6.29357 9.99935 6.66667 10.3724 6.66667 10.8327Z"/>
<path d="M10.8333 7.49935C10.8333 7.95959 10.4602 8.33268 10 8.33268C9.53976 8.33268 9.16667 7.95959 9.16667 7.49935C9.16667 7.03911 9.53976 6.66602 10 6.66602C10.4602 6.66602 10.8333 7.03911 10.8333 7.49935Z"/>
<path d="M10.8333 10.8327C10.8333 11.2929 10.4602 11.666 10 11.666C9.53976 11.666 9.16667 11.2929 9.16667 10.8327C9.16667 10.3724 9.53976 9.99935 10 9.99935C10.4602 9.99935 10.8333 10.3724 10.8333 10.8327Z"/>
<path d="M10.8333 14.166C10.8333 14.6263 10.4602 14.9993 10 14.9993C9.53976 14.9993 9.16667 14.6263 9.16667 14.166C9.16667 13.7058 9.53976 13.3327 10 13.3327C10.4602 13.3327 10.8333 13.7058 10.8333 14.166Z"/>
<path d="M15 7.49935C15 7.95959 14.6269 8.33268 14.1667 8.33268C13.7064 8.33268 13.3333 7.95959 13.3333 7.49935C13.3333 7.03911 13.7064 6.66602 14.1667 6.66602C14.6269 6.66602 15 7.03911 15 7.49935Z"/>
<path d="M15 10.8327C15 11.2929 14.6269 11.666 14.1667 11.666C13.7064 11.666 13.3333 11.2929 13.3333 10.8327C13.3333 10.3724 13.7064 9.99935 14.1667 9.99935C14.6269 9.99935 15 10.3724 15 10.8327Z"/>
<path d="M6.66667 14.166C6.66667 14.6263 6.29357 14.9993 5.83333 14.9993C5.3731 14.9993 5 14.6263 5 14.166C5 13.7058 5.3731 13.3327 5.83333 13.3327C6.29357 13.3327 6.66667 13.7058 6.66667 14.166Z"/>
</mask>
<path fill-rule="evenodd" clip-rule="evenodd" d="M7.5 1.04102C7.84518 1.04102 8.125 1.32084 8.125 1.66602V2.71652C8.6827 2.70768 9.30236 2.70768 9.99079 2.70768H10.0092C10.6976 2.70768 11.3173 2.70768 11.875 2.71652V1.66602C11.875 1.32084 12.1548 1.04102 12.5 1.04102C12.8452 1.04102 13.125 1.32084 13.125 1.66602V2.76067C14.3849 2.83965 15.3529 3.0438 16.1498 3.62281C16.5566 3.91836 16.9143 4.27609 17.2099 4.68288C17.6981 5.35481 17.9167 6.1418 18.0219 7.11308C18.125 8.06486 18.125 9.26452 18.125 10.795V10.8422C18.125 11.8088 18.125 12.6398 18.1005 13.3541C18.047 14.9153 17.8781 16.0628 17.2099 16.9825C16.9143 17.3893 16.5566 17.747 16.1498 18.0426C15.2301 18.7108 14.0826 18.8797 12.5214 18.9332C11.807 18.9577 10.9758 18.9577 10.009 18.9577H9.96227C8.43184 18.9577 7.23217 18.9577 6.2804 18.8546C5.30912 18.7493 4.52213 18.5307 3.8502 18.0426C3.44341 17.747 3.08568 17.3893 2.79013 16.9825C2.30194 16.3106 2.08334 15.5236 1.97811 14.5523C1.87499 13.6005 1.87499 12.4008 1.875 10.8704V10.795C1.87499 9.26453 1.87499 8.06486 1.97811 7.11308C2.08334 6.1418 2.30194 5.35481 2.79013 4.68288C3.08568 4.27609 3.44341 3.91836 3.8502 3.62281C4.64713 3.0438 5.61507 2.83965 6.875 2.76067V1.66602C6.875 1.32084 7.15482 1.04102 7.5 1.04102ZM6.875 4.01372C5.73996 4.09178 5.08481 4.27089 4.58493 4.63408C4.28426 4.85253 4.01985 5.11694 3.8014 5.41761C3.49383 5.84095 3.31454 6.38279 3.22083 7.24772C3.12586 8.12434 3.125 9.25637 3.125 10.8327C3.125 12.409 3.12586 13.541 3.22083 14.4176C3.31454 15.2826 3.49383 15.8244 3.8014 16.2478C4.01985 16.5484 4.28426 16.8128 4.58493 17.0313C5.00826 17.3389 5.55011 17.5181 6.41504 17.6118C7.29166 17.7068 8.42369 17.7077 10 17.7077C10.707 17.7077 11.3265 17.7076 11.8765 17.6987C11.8802 17.3031 11.8925 17.0119 11.934 16.7498C12.2587 14.6994 13.8668 13.0914 15.9171 12.7667C16.1793 12.7252 16.4704 12.7128 16.866 12.7092C16.875 12.1592 16.875 11.5396 16.875 10.8327C16.875 9.25637 16.8741 8.12434 16.7792 7.24772C16.6855 6.38279 16.5062 5.84095 16.1986 5.41761C15.9802 5.11694 15.7157 4.85253 15.4151 4.63408C14.9152 4.27089 14.26 4.09178 13.125 4.01372V4.16602C13.125 4.51119 12.8452 4.79102 12.5 4.79102C12.1548 4.79102 11.875 4.51119 11.875 4.16602V3.96667C11.3253 3.95772 10.7063 3.95768 10 3.95768C9.29369 3.95768 8.67466 3.95772 8.125 3.96667V4.16602C8.125 4.51119 7.84518 4.79102 7.5 4.79102C7.15482 4.79102 6.875 4.51119 6.875 4.16602V4.01372ZM16.8188 13.96C16.4813 13.9639 16.2835 13.9742 16.1126 14.0013C14.5972 14.2413 13.4086 15.4299 13.1686 16.9453C13.1415 17.1162 13.1312 17.314 13.1273 17.6515C14.2609 17.5733 14.9155 17.3942 15.4151 17.0313C15.7157 16.8128 15.9802 16.5484 16.1986 16.2478C16.5615 15.7482 16.7407 15.0936 16.8188 13.96Z" fill="black"/>
<path d="M6.66667 7.49935C6.66667 7.95959 6.29357 8.33268 5.83333 8.33268C5.3731 8.33268 5 7.95959 5 7.49935C5 7.03911 5.3731 6.66602 5.83333 6.66602C6.29357 6.66602 6.66667 7.03911 6.66667 7.49935Z" fill="black"/>
<path d="M6.66667 10.8327C6.66667 11.2929 6.29357 11.666 5.83333 11.666C5.3731 11.666 5 11.2929 5 10.8327C5 10.3724 5.3731 9.99935 5.83333 9.99935C6.29357 9.99935 6.66667 10.3724 6.66667 10.8327Z" fill="black"/>
<path d="M10.8333 7.49935C10.8333 7.95959 10.4602 8.33268 10 8.33268C9.53976 8.33268 9.16667 7.95959 9.16667 7.49935C9.16667 7.03911 9.53976 6.66602 10 6.66602C10.4602 6.66602 10.8333 7.03911 10.8333 7.49935Z" fill="black"/>
<path d="M10.8333 10.8327C10.8333 11.2929 10.4602 11.666 10 11.666C9.53976 11.666 9.16667 11.2929 9.16667 10.8327C9.16667 10.3724 9.53976 9.99935 10 9.99935C10.4602 9.99935 10.8333 10.3724 10.8333 10.8327Z" fill="black"/>
<path d="M10.8333 14.166C10.8333 14.6263 10.4602 14.9993 10 14.9993C9.53976 14.9993 9.16667 14.6263 9.16667 14.166C9.16667 13.7058 9.53976 13.3327 10 13.3327C10.4602 13.3327 10.8333 13.7058 10.8333 14.166Z" fill="black"/>
<path d="M15 7.49935C15 7.95959 14.6269 8.33268 14.1667 8.33268C13.7064 8.33268 13.3333 7.95959 13.3333 7.49935C13.3333 7.03911 13.7064 6.66602 14.1667 6.66602C14.6269 6.66602 15 7.03911 15 7.49935Z" fill="black"/>
<path d="M15 10.8327C15 11.2929 14.6269 11.666 14.1667 11.666C13.7064 11.666 13.3333 11.2929 13.3333 10.8327C13.3333 10.3724 13.7064 9.99935 14.1667 9.99935C14.6269 9.99935 15 10.3724 15 10.8327Z" fill="black"/>
<path d="M6.66667 14.166C6.66667 14.6263 6.29357 14.9993 5.83333 14.9993C5.3731 14.9993 5 14.6263 5 14.166C5 13.7058 5.3731 13.3327 5.83333 13.3327C6.29357 13.3327 6.66667 13.7058 6.66667 14.166Z" fill="black"/>
<path d="M8.125 2.71652H7.125V3.73249L8.14085 3.71639L8.125 2.71652ZM11.875 2.71652L11.8592 3.71639L12.875 3.73249V2.71652H11.875ZM13.125 2.76067H12.125V3.69994L13.0624 3.75871L13.125 2.76067ZM16.1498 3.62281L15.562 4.43183L15.562 4.43183L16.1498 3.62281ZM17.2099 4.68288L16.4009 5.27066L16.4009 5.27066L17.2099 4.68288ZM18.0219 7.11308L17.0277 7.22079L17.0277 7.22079L18.0219 7.11308ZM18.125 10.795L17.125 10.795V10.795H18.125ZM18.1005 13.3541L17.1011 13.3198L17.1011 13.3198L18.1005 13.3541ZM17.2099 16.9825L18.0189 17.5703L18.0189 17.5703L17.2099 16.9825ZM16.1498 18.0426L15.562 17.2335L15.562 17.2335L16.1498 18.0426ZM12.5214 18.9332L12.4872 17.9338L12.4872 17.9338L12.5214 18.9332ZM9.96227 18.9577L9.96227 17.9577L9.96227 17.9577L9.96227 18.9577ZM6.2804 18.8546L6.38811 17.8604L6.38811 17.8604L6.2804 18.8546ZM3.8502 18.0426L4.43798 17.2335L4.43798 17.2335L3.8502 18.0426ZM2.79013 16.9825L1.98111 17.5703L1.98111 17.5703L2.79013 16.9825ZM1.97811 14.5523L0.983925 14.66L0.983925 14.66L1.97811 14.5523ZM1.875 10.8704L2.875 10.8704V10.8704H1.875ZM1.875 10.795L2.875 10.795L2.875 10.795L1.875 10.795ZM1.97811 7.11308L2.97229 7.22079L2.97229 7.22079L1.97811 7.11308ZM2.79013 4.68288L3.59914 5.27066L3.59914 5.27066L2.79013 4.68288ZM3.8502 3.62281L4.43798 4.43183L4.43798 4.43183L3.8502 3.62281ZM6.875 2.76067L6.93757 3.75871L7.875 3.69994V2.76067H6.875ZM4.58493 4.63408L3.99714 3.82506L3.99714 3.82506L4.58493 4.63408ZM6.875 4.01372H7.875V2.94259L6.80639 3.01608L6.875 4.01372ZM3.8014 5.41761L2.99238 4.82982L2.99238 4.82982L3.8014 5.41761ZM3.22083 7.24772L4.21502 7.35543L4.21502 7.35543L3.22083 7.24772ZM3.22083 14.4176L4.21502 14.3099L4.21502 14.3099L3.22083 14.4176ZM3.8014 16.2478L4.61042 15.66L4.61041 15.66L3.8014 16.2478ZM4.58493 17.0313L3.99714 17.8403L3.99714 17.8403L4.58493 17.0313ZM6.41504 17.6118L6.30732 18.606L6.30733 18.606L6.41504 17.6118ZM11.8765 17.6987L11.8928 18.6985L12.8675 18.6826L12.8765 17.7079L11.8765 17.6987ZM11.934 16.7498L10.9463 16.5933L10.9463 16.5933L11.934 16.7498ZM15.9171 12.7667L15.7607 11.779L15.7607 11.779L15.9171 12.7667ZM16.866 12.7092L16.8752 13.7092L17.85 13.7002L17.8659 12.7255L16.866 12.7092ZM16.7792 7.24772L17.7733 7.14001L17.7733 7.14001L16.7792 7.24772ZM16.1986 5.41761L17.0076 4.82983L17.0076 4.82982L16.1986 5.41761ZM15.4151 4.63408L16.0029 3.82506L16.0029 3.82506L15.4151 4.63408ZM13.125 4.01372L13.1936 3.01608L12.125 2.94259V4.01372H13.125ZM11.875 3.96667H12.875V2.98282L11.8913 2.9668L11.875 3.96667ZM8.125 3.96667L8.10872 2.9668L7.125 2.98282V3.96667H8.125ZM16.1126 14.0013L15.9562 13.0136L15.9562 13.0136L16.1126 14.0013ZM16.8188 13.96L17.8164 14.0288L17.891 12.9475L16.8072 12.9601L16.8188 13.96ZM13.1686 16.9453L14.1563 17.1017L14.1563 17.1017L13.1686 16.9453ZM13.1273 17.6515L12.1274 17.6399L12.1149 18.7236L13.1961 18.6491L13.1273 17.6515ZM15.4151 17.0313L16.0029 17.8403L16.0029 17.8403L15.4151 17.0313ZM16.1986 16.2478L15.3896 15.66L15.3896 15.66L16.1986 16.2478ZM9.125 1.66602C9.125 0.768553 8.39746 0.0410156 7.5 0.0410156V2.04102C7.29289 2.04102 7.125 1.87312 7.125 1.66602H9.125ZM9.125 2.71652V1.66602H7.125V2.71652H9.125ZM9.99079 1.70768C9.30451 1.70768 8.67635 1.70766 8.10915 1.71665L8.14085 3.71639C8.68904 3.70771 9.30022 3.70768 9.99079 3.70768V1.70768ZM11.8908 1.71665C11.3237 1.70766 10.6955 1.70768 10.0092 1.70768V3.70768C10.6998 3.70768 11.311 3.70771 11.8592 3.71639L11.8908 1.71665ZM10.875 1.66602V2.71652H12.875V1.66602H10.875ZM12.5 0.0410156C11.6025 0.0410156 10.875 0.768553 10.875 1.66602H12.875C12.875 1.87312 12.7071 2.04102 12.5 2.04102V0.0410156ZM14.125 1.66602C14.125 0.768553 13.3975 0.0410156 12.5 0.0410156V2.04102C12.2929 2.04102 12.125 1.87312 12.125 1.66602H14.125ZM14.125 2.76067V1.66602H12.125V2.76067H14.125ZM16.7376 2.81379C15.7061 2.06434 14.503 1.84509 13.1876 1.76263L13.0624 3.75871C14.2669 3.83422 14.9997 4.02327 15.562 4.43183L16.7376 2.81379ZM18.0189 4.09509C17.6617 3.60341 17.2293 3.17102 16.7376 2.81379L15.562 4.43183C15.8839 4.6657 16.167 4.94877 16.4009 5.27066L18.0189 4.09509ZM19.0161 7.00537C18.9016 5.949 18.6516 4.96591 18.0189 4.09509L16.4009 5.27066C16.7446 5.74372 16.9317 6.3346 17.0277 7.22079L19.0161 7.00537ZM19.125 10.795C19.125 9.28571 19.1264 8.02325 19.0161 7.00537L17.0277 7.22079C17.1237 8.10646 17.125 9.24332 17.125 10.795L19.125 10.795ZM19.0999 13.3883C19.1251 12.6533 19.125 11.8034 19.125 10.8422H17.125C17.125 11.8142 17.1249 12.6263 17.1011 13.3198L19.0999 13.3883ZM18.0189 17.5703C18.8797 16.3855 19.046 14.9628 19.0999 13.3883L17.1011 13.3198C17.0481 14.8678 16.8765 15.74 16.4009 16.3947L18.0189 17.5703ZM16.7376 18.8516C17.2293 18.4943 17.6617 18.062 18.0189 17.5703L16.4009 16.3947C16.167 16.7166 15.8839 16.9997 15.562 17.2335L16.7376 18.8516ZM12.5556 19.9326C14.1301 19.8787 15.5528 19.7124 16.7376 18.8516L15.562 17.2335C14.9074 17.7092 14.0351 17.8808 12.4872 17.9338L12.5556 19.9326ZM10.009 19.9577C10.9704 19.9577 11.8205 19.9578 12.5556 19.9326L12.4872 17.9338C11.7935 17.9576 10.9812 17.9577 10.009 17.9577V19.9577ZM6.17268 19.8488C7.19057 19.959 8.45303 19.9577 9.96228 19.9577L9.96227 17.9577C8.41064 17.9577 7.27377 17.9564 6.38811 17.8604L6.17268 19.8488ZM3.26241 18.8516C4.13323 19.4843 5.11632 19.7343 6.17268 19.8488L6.38811 17.8604C5.50191 17.7644 4.91104 17.5772 4.43798 17.2335L3.26241 18.8516ZM1.98111 17.5703C2.33834 18.062 2.77073 18.4943 3.26241 18.8516L4.43798 17.2335C4.11609 16.9997 3.83301 16.7166 3.59914 16.3947L1.98111 17.5703ZM0.983925 14.66C1.09837 15.7164 1.34843 16.6995 1.98111 17.5703L3.59914 16.3947C3.25545 15.9216 3.0683 15.3308 2.97229 14.4446L0.983925 14.66ZM0.875 10.8704C0.874993 12.3796 0.873643 13.6421 0.983925 14.66L2.97229 14.4446C2.87633 13.5589 2.87499 12.422 2.875 10.8704L0.875 10.8704ZM0.983925 7.00537C0.873643 8.02326 0.874993 9.28572 0.875 10.795L2.875 10.795C2.87499 9.24333 2.87633 8.10646 2.97229 7.22079L0.983925 7.00537ZM1.98111 4.09509C1.34843 4.96591 1.09837 5.949 0.983925 7.00537L2.97229 7.22079C3.0683 6.3346 3.25545 5.74372 3.59914 5.27066L1.98111 4.09509ZM3.26241 2.81379C2.77073 3.17102 2.33834 3.60341 1.98111 4.09509L3.59914 5.27066C3.83301 4.94877 4.11609 4.6657 4.43798 4.43183L3.26241 2.81379ZM6.81243 1.76263C5.497 1.84509 4.29394 2.06434 3.26241 2.81379L4.43798 4.43183C5.00032 4.02327 5.73314 3.83422 6.93757 3.75871L6.81243 1.76263ZM5.875 1.66602V2.76067H7.875V1.66602H5.875ZM7.5 0.0410156C6.60254 0.0410156 5.875 0.768553 5.875 1.66602H7.875C7.875 1.87312 7.70711 2.04102 7.5 2.04102V0.0410156ZM5.17271 5.4431C5.44074 5.24837 5.86381 5.08563 6.94361 5.01137L6.80639 3.01608C5.6161 3.09794 4.72889 3.29342 3.99714 3.82506L5.17271 5.4431ZM4.61042 6.0054C4.76718 5.78962 4.95694 5.59987 5.17271 5.4431L3.99714 3.82506C3.61158 4.10519 3.27251 4.44426 2.99238 4.82982L4.61042 6.0054ZM4.21502 7.35543C4.29951 6.57559 4.44734 6.22985 4.61042 6.00539L2.99238 4.82982C2.54031 5.45204 2.32958 6.19 2.22665 7.14001L4.21502 7.35543ZM4.125 10.8327C4.125 9.23384 4.12724 8.16563 4.21502 7.35543L2.22665 7.14001C2.12448 8.08306 2.125 9.27891 2.125 10.8327H4.125ZM4.21502 14.3099C4.12724 13.4997 4.125 12.4315 4.125 10.8327H2.125C2.125 12.3865 2.12448 13.5823 2.22665 14.5254L4.21502 14.3099ZM4.61041 15.66C4.44734 15.4355 4.29951 15.0898 4.21502 14.3099L2.22665 14.5254C2.32958 15.4754 2.54031 16.2133 2.99238 16.8355L4.61041 15.66ZM5.17271 16.2223C4.95694 16.0655 4.76719 15.8757 4.61042 15.66L2.99238 16.8355C3.27251 17.2211 3.61158 17.5602 3.99714 17.8403L5.17271 16.2223ZM6.52275 16.6177C5.74291 16.5332 5.39717 16.3853 5.17271 16.2223L3.99714 17.8403C4.61936 18.2924 5.35732 18.5031 6.30732 18.606L6.52275 16.6177ZM10 16.7077C8.40115 16.7077 7.33294 16.7054 6.52275 16.6177L6.30733 18.606C7.25038 18.7082 8.44622 18.7077 10 18.7077V16.7077ZM11.8602 16.6988C11.32 16.7076 10.7092 16.7077 10 16.7077V18.7077C10.7047 18.7077 11.333 18.7077 11.8928 18.6985L11.8602 16.6988ZM10.9463 16.5933C10.8925 16.9333 10.8803 17.2872 10.8766 17.6895L12.8765 17.7079C12.8801 17.3191 12.8925 17.0906 12.9217 16.9062L10.9463 16.5933ZM15.7607 11.779C13.2824 12.1715 11.3388 14.1151 10.9463 16.5933L12.9217 16.9062C13.1786 15.2838 14.4511 14.0113 16.0735 13.7544L15.7607 11.779ZM16.8568 11.7092C16.4545 11.7129 16.1006 11.7251 15.7607 11.779L16.0735 13.7544C16.2579 13.7252 16.4864 13.7127 16.8752 13.7092L16.8568 11.7092ZM15.875 10.8327C15.875 11.5419 15.8749 12.1527 15.8661 12.6929L17.8659 12.7255C17.875 12.1657 17.875 11.5374 17.875 10.8327H15.875ZM15.785 7.35543C15.8728 8.16563 15.875 9.23384 15.875 10.8327H17.875C17.875 9.27891 17.8755 8.08306 17.7733 7.14001L15.785 7.35543ZM15.3896 6.00539C15.5527 6.22985 15.7005 6.57559 15.785 7.35543L17.7733 7.14001C17.6704 6.19 17.4597 5.45204 17.0076 4.82983L15.3896 6.00539ZM14.8273 5.4431C15.0431 5.59987 15.2328 5.78962 15.3896 6.0054L17.0076 4.82982C16.7275 4.44426 16.3884 4.10519 16.0029 3.82506L14.8273 5.4431ZM13.0564 5.01137C14.1362 5.08563 14.5593 5.24837 14.8273 5.4431L16.0029 3.82506C15.2711 3.29342 14.3839 3.09794 13.1936 3.01608L13.0564 5.01137ZM14.125 4.16602V4.01372H12.125V4.16602H14.125ZM12.5 5.79102C13.3975 5.79102 14.125 5.06348 14.125 4.16602H12.125C12.125 3.95891 12.2929 3.79102 12.5 3.79102V5.79102ZM10.875 4.16602C10.875 5.06348 11.6025 5.79102 12.5 5.79102V3.79102C12.7071 3.79102 12.875 3.95891 12.875 4.16602H10.875ZM10.875 3.96667V4.16602H12.875V3.96667H10.875ZM10 4.95768C10.7086 4.95768 11.3188 4.95775 11.8587 4.96654L11.8913 2.9668C11.3318 2.9577 10.704 2.95768 10 2.95768V4.95768ZM8.14128 4.96654C8.68115 4.95775 9.29142 4.95768 10 4.95768V2.95768C9.29597 2.95768 8.66816 2.9577 8.10872 2.9668L8.14128 4.96654ZM9.125 4.16602V3.96667H7.125V4.16602H9.125ZM7.5 5.79102C8.39746 5.79102 9.125 5.06348 9.125 4.16602H7.125C7.125 3.95891 7.29289 3.79102 7.5 3.79102V5.79102ZM5.875 4.16602C5.875 5.06348 6.60254 5.79102 7.5 5.79102V3.79102C7.70711 3.79102 7.875 3.95891 7.875 4.16602H5.875ZM5.875 4.01372V4.16602H7.875V4.01372H5.875ZM16.2691 14.989C16.3627 14.9741 16.4981 14.9638 16.8304 14.9599L16.8072 12.9601C16.4646 12.964 16.2043 12.9743 15.9562 13.0136L16.2691 14.989ZM14.1563 17.1017C14.3285 16.0142 15.1815 15.1612 16.2691 14.989L15.9562 13.0136C14.0128 13.3214 12.4887 14.8455 12.1809 16.7889L14.1563 17.1017ZM14.1273 17.663C14.1311 17.3308 14.1415 17.1954 14.1563 17.1017L12.1809 16.7889C12.1416 17.037 12.1313 17.2973 12.1274 17.6399L14.1273 17.663ZM14.8273 16.2223C14.5595 16.4169 14.1368 16.5795 13.0586 16.6538L13.1961 18.6491C14.3851 18.5671 15.2716 18.3716 16.0029 17.8403L14.8273 16.2223ZM15.3896 15.66C15.2328 15.8757 15.0431 16.0655 14.8273 16.2223L16.0029 17.8403C16.3884 17.5602 16.7275 17.2211 17.0076 16.8355L15.3896 15.66ZM15.8212 13.8912C15.7468 14.9695 15.5842 15.3921 15.3896 15.66L17.0076 16.8355C17.5389 16.1043 17.7345 15.2178 17.8164 14.0288L15.8212 13.8912ZM10.0092 1.70768H9.99079V3.70768H10.0092V1.70768ZM19.125 10.8422V10.795H17.125V10.8422H19.125ZM9.96227 19.9577H10.009V17.9577H9.96227V19.9577ZM0.875 10.795V10.8704H2.875V10.795H0.875ZM5.66667 7.49935C5.66667 7.4073 5.74129 7.33268 5.83333 7.33268V9.33268C6.84586 9.33268 7.66667 8.51187 7.66667 7.49935H5.66667ZM5.83333 7.33268C5.92538 7.33268 6 7.4073 6 7.49935H4C4 8.51187 4.82081 9.33268 5.83333 9.33268V7.33268ZM6 7.49935C6 7.5914 5.92538 7.66602 5.83333 7.66602V5.66602C4.82081 5.66602 4 6.48683 4 7.49935H6ZM5.83333 7.66602C5.74129 7.66602 5.66667 7.5914 5.66667 7.49935H7.66667C7.66667 6.48683 6.84586 5.66602 5.83333 5.66602V7.66602ZM5.66667 10.8327C5.66667 10.7406 5.74129 10.666 5.83333 10.666V12.666C6.84586 12.666 7.66667 11.8452 7.66667 10.8327H5.66667ZM5.83333 10.666C5.92538 10.666 6 10.7406 6 10.8327H4C4 11.8452 4.82081 12.666 5.83333 12.666V10.666ZM6 10.8327C6 10.9247 5.92538 10.9993 5.83333 10.9993V8.99935C4.82081 8.99935 4 9.82016 4 10.8327H6ZM5.83333 10.9993C5.74129 10.9993 5.66667 10.9247 5.66667 10.8327H7.66667C7.66667 9.82016 6.84586 8.99935 5.83333 8.99935V10.9993ZM9.83333 7.49935C9.83333 7.4073 9.90795 7.33268 10 7.33268V9.33268C11.0125 9.33268 11.8333 8.51187 11.8333 7.49935H9.83333ZM10 7.33268C10.092 7.33268 10.1667 7.4073 10.1667 7.49935H8.16667C8.16667 8.51187 8.98748 9.33268 10 9.33268V7.33268ZM10.1667 7.49935C10.1667 7.5914 10.092 7.66602 10 7.66602V5.66602C8.98748 5.66602 8.16667 6.48683 8.16667 7.49935H10.1667ZM10 7.66602C9.90795 7.66602 9.83333 7.5914 9.83333 7.49935H11.8333C11.8333 6.48683 11.0125 5.66602 10 5.66602V7.66602ZM9.83333 10.8327C9.83333 10.7406 9.90795 10.666 10 10.666V12.666C11.0125 12.666 11.8333 11.8452 11.8333 10.8327H9.83333ZM10 10.666C10.092 10.666 10.1667 10.7406 10.1667 10.8327H8.16667C8.16667 11.8452 8.98748 12.666 10 12.666V10.666ZM10.1667 10.8327C10.1667 10.9247 10.092 10.9993 10 10.9993V8.99935C8.98748 8.99935 8.16667 9.82016 8.16667 10.8327H10.1667ZM10 10.9993C9.90795 10.9993 9.83333 10.9247 9.83333 10.8327H11.8333C11.8333 9.82016 11.0125 8.99935 10 8.99935V10.9993ZM9.83333 14.166C9.83333 14.074 9.90795 13.9993 10 13.9993V15.9993C11.0125 15.9993 11.8333 15.1785 11.8333 14.166H9.83333ZM10 13.9993C10.092 13.9993 10.1667 14.074 10.1667 14.166H8.16667C8.16667 15.1785 8.98748 15.9993 10 15.9993V13.9993ZM10.1667 14.166C10.1667 14.2581 10.092 14.3327 10 14.3327V12.3327C8.98748 12.3327 8.16667 13.1535 8.16667 14.166H10.1667ZM10 14.3327C9.90795 14.3327 9.83333 14.2581 9.83333 14.166H11.8333C11.8333 13.1535 11.0125 12.3327 10 12.3327V14.3327ZM14 7.49935C14 7.4073 14.0746 7.33268 14.1667 7.33268V9.33268C15.1792 9.33268 16 8.51187 16 7.49935H14ZM14.1667 7.33268C14.2587 7.33268 14.3333 7.4073 14.3333 7.49935H12.3333C12.3333 8.51187 13.1541 9.33268 14.1667 9.33268V7.33268ZM14.3333 7.49935C14.3333 7.5914 14.2587 7.66602 14.1667 7.66602V5.66602C13.1541 5.66602 12.3333 6.48683 12.3333 7.49935H14.3333ZM14.1667 7.66602C14.0746 7.66602 14 7.5914 14 7.49935H16C16 6.48683 15.1792 5.66602 14.1667 5.66602V7.66602ZM14 10.8327C14 10.7406 14.0746 10.666 14.1667 10.666V12.666C15.1792 12.666 16 11.8452 16 10.8327H14ZM14.1667 10.666C14.2587 10.666 14.3333 10.7406 14.3333 10.8327H12.3333C12.3333 11.8452 13.1541 12.666 14.1667 12.666V10.666ZM14.3333 10.8327C14.3333 10.9247 14.2587 10.9993 14.1667 10.9993V8.99935C13.1541 8.99935 12.3333 9.82016 12.3333 10.8327H14.3333ZM14.1667 10.9993C14.0746 10.9993 14 10.9247 14 10.8327H16C16 9.82016 15.1792 8.99935 14.1667 8.99935V10.9993ZM5.66667 14.166C5.66667 14.074 5.74129 13.9993 5.83333 13.9993V15.9993C6.84586 15.9993 7.66667 15.1785 7.66667 14.166H5.66667ZM5.83333 13.9993C5.92538 13.9993 6 14.074 6 14.166H4C4 15.1785 4.82081 15.9993 5.83333 15.9993V13.9993ZM6 14.166C6 14.2581 5.92538 14.3327 5.83333 14.3327V12.3327C4.82081 12.3327 4 13.1535 4 14.166H6ZM5.83333 14.3327C5.74129 14.3327 5.66667 14.2581 5.66667 14.166H7.66667C7.66667 13.1535 6.84586 12.3327 5.83333 12.3327V14.3327Z" fill="black" mask="url(#path-1-inside-1_1550_25856)"/>
</svg>
