<svg width="20" height="20" viewBox="0 0 20 20" fill="none" xmlns="http://www.w3.org/2000/svg">
<path d="M9.60932 15.8505L9.33639 15.152L9.60932 15.8505ZM6.22899 16.4997L5.85399 17.1492H5.85399L6.22899 16.4997ZM5.10097 13.2476L4.35952 13.3606L5.10097 13.2476ZM5.50955 11.0791L6.15907 11.4541L5.50955 11.0791ZM5.02276 12.1101L4.28573 11.9713H4.28573L5.02276 12.1101ZM11.2831 14.4124L11.9326 14.7874L11.2831 14.4124ZM10.6335 15.3495L11.1223 15.9184H11.1223L10.6335 15.3495ZM8.67492 5.59651L8.0254 5.22151L8.67492 5.59651ZM13.7989 8.55484L10.6335 14.0374L11.9326 14.7874L15.0979 9.30484L13.7989 8.55484ZM6.15907 11.4541L9.32444 5.97151L8.0254 5.22151L4.86003 10.7041L6.15907 11.4541ZM9.33639 15.152C8.41903 15.5104 7.80659 15.7477 7.33701 15.8574C6.88704 15.9625 6.71381 15.9135 6.60399 15.8501L5.85399 17.1492C6.43789 17.4863 7.05929 17.4626 7.67828 17.318C8.27766 17.178 9.00854 16.8905 9.88225 16.5491L9.33639 15.152ZM4.35952 13.3606C4.50076 14.2879 4.61719 15.0646 4.7956 15.6537C4.97986 16.2621 5.27009 16.8121 5.85399 17.1492L6.60399 15.8501C6.49416 15.7867 6.36515 15.6612 6.23121 15.2189C6.09143 14.7574 5.99071 14.1084 5.84242 13.1347L4.35952 13.3606ZM4.86003 10.7041C4.59611 11.1612 4.36739 11.5378 4.28573 11.9713L5.75979 12.249C5.78324 12.1246 5.84401 11.9998 6.15907 11.4541L4.86003 10.7041ZM5.84242 13.1347C5.74754 12.5118 5.73635 12.3734 5.75979 12.249L4.28573 11.9713C4.20406 12.4047 4.28004 12.8387 4.35952 13.3606L5.84242 13.1347ZM10.6335 14.0374C10.3185 14.5831 10.2408 14.6981 10.1448 14.7807L11.1223 15.9184C11.4568 15.6309 11.6687 15.2445 11.9326 14.7874L10.6335 14.0374ZM9.88225 16.5491C10.3739 16.357 10.7878 16.2058 11.1223 15.9184L10.1448 14.7807C10.0487 14.8632 9.92331 14.9227 9.33639 15.152L9.88225 16.5491ZM12.8533 5.02594C13.5521 5.42938 14.0101 5.69561 14.3234 5.93742C14.6195 6.16593 14.694 6.30455 14.7238 6.41588L16.1727 6.02765C16.0239 5.47215 15.6688 5.08094 15.2398 4.7499C14.8281 4.43216 14.2654 4.10914 13.6033 3.7269L12.8533 5.02594ZM15.0979 9.30484C15.4802 8.64279 15.806 8.08171 16.0037 7.60067C16.2096 7.09949 16.3215 6.58315 16.1727 6.02765L14.7238 6.41588C14.7536 6.52721 14.7585 6.6845 14.6163 7.03045C14.4658 7.39653 14.2023 7.85607 13.7989 8.55484L15.0979 9.30484ZM13.6033 3.7269C12.9413 3.34467 12.3802 3.01889 11.8992 2.82118C11.398 2.6152 10.8816 2.5033 10.3261 2.65214L10.7144 4.10103C10.8257 4.0712 10.983 4.06639 11.3289 4.20857C11.695 4.35903 12.1546 4.6225 12.8533 5.02594L13.6033 3.7269ZM9.32444 5.97151C9.72787 5.27273 9.99411 4.81479 10.2359 4.50145C10.4644 4.20534 10.603 4.13086 10.7144 4.10103L10.3261 2.65214C9.77065 2.80099 9.37943 3.15606 9.0484 3.58504C8.73066 3.99678 8.40763 4.55946 8.0254 5.22151L9.32444 5.97151ZM14.8234 8.28032L9.04992 4.94699L8.29992 6.24603L14.0734 9.57936L14.8234 8.28032Z" fill="#46BCC4"/>
</svg>
