<svg width="24" height="24" viewBox="0 0 24 24" fill="none" xmlns="http://www.w3.org/2000/svg">
<path fill-rule="evenodd" clip-rule="evenodd" d="M10.75 1C8.12665 1 6 3.12665 6 5.75C6 8.37335 8.12665 10.5 10.75 10.5C13.3734 10.5 15.5 8.37335 15.5 5.75C15.5 3.12665 13.3734 1 10.75 1ZM7.5 5.75C7.5 3.95507 8.95507 2.5 10.75 2.5C12.5449 2.5 14 3.95507 14 5.75C14 7.54493 12.5449 9 10.75 9C8.95507 9 7.5 7.54493 7.5 5.75Z" fill="black"/>
<path fill-rule="evenodd" clip-rule="evenodd" d="M7.75 12C5.12665 12 3 14.1266 3 16.75C3 19.3734 5.12665 21.5 7.75 21.5H13.75C16.3734 21.5 18.5 19.3734 18.5 16.75C18.5 14.1266 16.3734 12 13.75 12H7.75ZM4.5 16.75C4.5 14.9551 5.95507 13.5 7.75 13.5H13.75C15.5449 13.5 17 14.9551 17 16.75C17 18.5449 15.5449 20 13.75 20H7.75C5.95507 20 4.5 18.5449 4.5 16.75Z" fill="black"/>
<circle cx="16.75" cy="18.75" r="5" fill="white"/>
<path d="M17.9601 15.491L14.42 19.031C14.28 19.171 14.15 19.431 14.12 19.621L13.93 20.971C13.86 21.461 14.2 21.801 14.69 21.731L16.04 21.541C16.23 21.511 16.5 21.381 16.63 21.241L20.17 17.701C20.78 17.091 21.07 16.381 20.17 15.481C19.28 14.591 18.5701 14.881 17.9601 15.491Z" stroke="black" stroke-width="1.5" stroke-miterlimit="10" stroke-linecap="round" stroke-linejoin="round"/>
<path d="M17.4502 16C17.7502 17.08 18.5902 17.92 19.6702 18.22" stroke="black" stroke-width="1.5" stroke-miterlimit="10" stroke-linecap="round" stroke-linejoin="round"/>
</svg>
