<svg width="72" height="35" viewBox="0 0 72 35" fill="none" xmlns="http://www.w3.org/2000/svg">
<path d="M9.4234 11.3056C9.3558 11.3057 9.28943 11.2873 9.23122 11.2523C9.173 11.2174 9.12507 11.1672 9.09242 11.107C9.05978 11.0468 9.04362 10.9788 9.04562 10.9101C9.04763 10.8413 9.06773 10.7744 9.10382 10.7163L9.65988 9.81655L8.42236 10.5427C8.35093 10.5842 8.26811 10.601 8.18648 10.5903C8.10485 10.5796 8.02889 10.5421 7.97014 10.4835C7.91139 10.4249 7.87307 10.3483 7.86101 10.2655C7.84895 10.1827 7.86381 10.0982 7.90332 10.0248L8.48884 8.94446L8.42765 8.98057C8.34131 9.0265 8.24087 9.03673 8.1473 9.00912C8.05373 8.98151 7.97426 8.9182 7.9255 8.83241C7.87674 8.74662 7.86246 8.64499 7.88564 8.54875C7.90882 8.45251 7.96767 8.36909 8.04989 8.31593L9.28665 7.58983C9.35808 7.54825 9.44091 7.53152 9.52253 7.5422C9.60416 7.55289 9.68012 7.59039 9.73887 7.64901C9.79762 7.70762 9.83594 7.78415 9.848 7.86695C9.86006 7.94975 9.8452 8.03428 9.80569 8.10771L9.22093 9.18342L10.6111 8.36665C10.6842 8.32362 10.7694 8.30676 10.853 8.31877C10.9367 8.33079 11.014 8.37098 11.0725 8.43292C11.1311 8.49486 11.1675 8.57498 11.1761 8.66047C11.1846 8.74595 11.1647 8.83188 11.1195 8.9045L10.5665 9.80887L10.6352 9.76891C10.6782 9.74111 10.7263 9.72245 10.7766 9.71404C10.8269 9.70563 10.8783 9.70765 10.9278 9.71998C10.9772 9.73231 11.0238 9.75468 11.0645 9.78577C11.1053 9.81686 11.1394 9.85601 11.1649 9.90087C11.1904 9.94573 11.2067 9.99537 11.2129 10.0468C11.219 10.0982 11.2149 10.1504 11.2007 10.2002C11.1865 10.2499 11.1625 10.2963 11.1303 10.3364C11.098 10.3765 11.0581 10.4095 11.013 10.4335L9.6153 11.2542C9.55715 11.2888 9.49079 11.3066 9.4234 11.3056Z" fill="#46BCC4"/>
<path d="M22.3206 11.087C22.2505 11.087 22.1817 11.0671 22.122 11.0296C22.0624 10.9921 22.0141 10.9384 21.9828 10.8746C21.9514 10.8108 21.9381 10.7394 21.9444 10.6683C21.9507 10.5972 21.9763 10.5294 22.0184 10.4723L22.6742 9.56717L21.8802 10.0328C21.8041 10.0773 21.7151 10.0935 21.6286 10.0786C21.542 10.0637 21.4633 10.0186 21.4059 9.95101C21.3485 9.88346 21.316 9.79768 21.3141 9.70842C21.3121 9.61916 21.3408 9.532 21.3951 9.4619L21.7404 9.01932C21.6929 9.00638 21.6484 8.98395 21.6095 8.95334C21.5706 8.92274 21.538 8.88457 21.5137 8.84106C21.4638 8.75298 21.4503 8.64838 21.476 8.55016C21.5018 8.45194 21.5648 8.36811 21.6512 8.31704L22.888 7.59093C22.9642 7.546 23.0534 7.52953 23.1402 7.54438C23.227 7.55923 23.306 7.60446 23.3636 7.67226C23.4211 7.74005 23.4535 7.82616 23.4552 7.91569C23.457 8.00522 23.4279 8.09255 23.373 8.16259L23.2219 8.35853L23.8619 7.98357C23.937 7.93953 24.0248 7.92314 24.1104 7.93716C24.1961 7.95118 24.2744 7.99475 24.3322 8.06055C24.3899 8.12634 24.4237 8.21036 24.4278 8.29848C24.4318 8.38661 24.4059 8.47347 24.3544 8.54447L23.6987 9.44884L24.396 9.04007C24.439 9.01227 24.4871 8.99361 24.5373 8.9852C24.5876 8.97679 24.639 8.97881 24.6885 8.99113C24.738 9.00346 24.7845 9.02584 24.8253 9.05693C24.866 9.08801 24.9002 9.12716 24.9257 9.17202C24.9512 9.21688 24.9675 9.26652 24.9736 9.31796C24.9798 9.3694 24.9756 9.42156 24.9614 9.47133C24.9473 9.52109 24.9233 9.56742 24.8911 9.60752C24.8588 9.64763 24.8189 9.68069 24.7738 9.7047L22.5118 11.0332C22.4541 11.0685 22.388 11.0871 22.3206 11.087Z" fill="#46BCC4"/>
<path d="M21.0284 23.648C20.9525 23.6479 20.8785 23.6246 20.8159 23.5811C20.7533 23.5377 20.705 23.476 20.6772 23.4043C20.6495 23.3325 20.6437 23.2539 20.6605 23.1787C20.6773 23.1035 20.716 23.0352 20.7715 22.9826L21.3404 22.4448L20.4187 22.9826C20.3393 23.0275 20.2467 23.0418 20.1579 23.0229C20.069 23.004 19.9898 22.9532 19.9348 22.8797C19.8797 22.8063 19.8525 22.7152 19.8581 22.623C19.8638 22.5309 19.9018 22.4439 19.9654 22.3779L20.6733 21.6618C20.6071 21.6277 20.5526 21.5742 20.5169 21.5081C20.4668 21.4199 20.4532 21.315 20.4792 21.2166C20.5051 21.1182 20.5684 21.0343 20.6552 20.9833L22.3399 19.9937C22.4193 19.9488 22.5119 19.9345 22.6007 19.9534C22.6896 19.9723 22.7688 20.0231 22.8238 20.0966C22.8789 20.17 22.9061 20.2611 22.9005 20.3533C22.8948 20.4454 22.8568 20.5324 22.7932 20.5984L22.5575 20.8366L23.8661 20.0682C23.9465 20.0207 24.0414 20.005 24.1325 20.0243C24.2236 20.0435 24.3045 20.0962 24.3598 20.1724C24.415 20.2486 24.4407 20.3428 24.4318 20.437C24.4229 20.5312 24.3802 20.6188 24.3118 20.6829L23.7452 21.2208L24.7968 20.6061C24.87 20.5623 24.9555 20.5449 25.0396 20.5565C25.1237 20.5682 25.2014 20.6084 25.2603 20.6705C25.3192 20.7326 25.3559 20.8131 25.3643 20.899C25.3727 20.9849 25.3525 21.0712 25.3068 21.1439L24.6948 22.1536L25.6075 21.6157C25.6942 21.5656 25.7969 21.5523 25.8932 21.5789C25.9894 21.6055 26.0715 21.6697 26.1213 21.7576C26.1712 21.8454 26.1849 21.9498 26.1594 22.0479C26.1339 22.146 26.0713 22.2298 25.9852 22.2811L23.7701 23.5812C23.697 23.625 23.6115 23.6424 23.5274 23.6307C23.4433 23.619 23.3655 23.5789 23.3066 23.5167C23.2477 23.4546 23.2111 23.3741 23.2026 23.2882C23.1942 23.2023 23.2145 23.1161 23.2601 23.0433L23.8766 22.0322L21.2195 23.5965C21.1616 23.6311 21.0955 23.6489 21.0284 23.648Z" fill="#46BCC4"/>
<path d="M9.20075 23.6279C9.13282 23.6281 9.06611 23.6095 9.00765 23.5743C8.94919 23.5391 8.90116 23.4885 8.8686 23.4279C8.83604 23.3672 8.82016 23.2988 8.82264 23.2297C8.82512 23.1607 8.84586 23.0936 8.88269 23.0355L9.71752 21.7124L7.11027 23.2438C7.03411 23.2887 6.94491 23.3052 6.85808 23.2903C6.77125 23.2755 6.69225 23.2302 6.63472 23.1624C6.5772 23.0946 6.54477 23.0085 6.54304 22.919C6.54131 22.8295 6.57038 22.7421 6.62524 22.6721L7.40643 21.6732C7.31971 21.7234 7.21702 21.7366 7.12075 21.71C7.02448 21.6834 6.94246 21.6192 6.89258 21.5313C6.84271 21.4435 6.82902 21.3391 6.85452 21.241C6.88002 21.143 6.94262 21.0591 7.02868 21.0078L8.74292 20.0013C8.81901 19.9563 8.90816 19.9397 8.99497 19.9545C9.08178 19.9692 9.1608 20.0143 9.2184 20.082C9.27599 20.1497 9.30854 20.2357 9.31042 20.3252C9.31231 20.4147 9.2834 20.502 9.22871 20.5722L8.44374 21.5718L10.6868 20.2548C10.7599 20.2129 10.8447 20.1969 10.9277 20.2094C11.0108 20.2218 11.0873 20.2621 11.1454 20.3238C11.2034 20.3854 11.2396 20.465 11.2482 20.5499C11.2569 20.6348 11.2374 20.7202 11.193 20.7927L10.3582 22.1158L11.7808 21.2806C11.8539 21.2386 11.9387 21.2226 12.0217 21.2351C12.1047 21.2476 12.1813 21.2879 12.2393 21.3495C12.2974 21.4112 12.3336 21.4908 12.3422 21.5757C12.3508 21.6606 12.3314 21.746 12.287 21.8184L12.1057 22.1012L12.1578 22.0712C12.2441 22.0253 12.3446 22.0151 12.4382 22.0427C12.5317 22.0703 12.6112 22.1336 12.6599 22.2194C12.7087 22.3052 12.723 22.4068 12.6998 22.5031C12.6766 22.5993 12.6178 22.6827 12.5356 22.7359L11.1235 23.5649C11.0504 23.6069 10.9657 23.6229 10.8826 23.6104C10.7996 23.5979 10.723 23.5577 10.665 23.496C10.6069 23.4343 10.5708 23.3547 10.5621 23.2698C10.5535 23.1849 10.5729 23.0995 10.6173 23.0271L10.7979 22.7443L9.38963 23.5711C9.33288 23.607 9.26761 23.6267 9.20075 23.6279Z" fill="#46BCC4"/>
<path d="M20.5636 1.29865C18.0007 0.500976 15.2653 0.476215 12.6889 1.22737C10.1124 1.97852 7.80542 3.47336 6.0473 5.5308C4.26348 7.67745 3.19058 10.3415 2.98115 13.1439C2.77173 15.9464 3.43645 18.7447 4.8808 21.1409C5.22457 21.7 5.61 22.2315 6.0337 22.7307C6.06145 22.8056 6.11519 22.8676 6.1848 22.9051C6.34799 23.091 6.51647 23.2708 6.68872 23.4429C6.72339 23.524 6.78716 23.5886 6.86702 23.6235C9.37711 26.0502 12.707 27.405 16.1702 27.4088C19.6334 27.4125 22.9661 26.0648 25.4812 23.6435C25.6988 23.5958 25.9405 23.4368 25.9632 23.2163C25.9632 23.1994 25.9549 23.1901 25.9549 23.1748C26.0304 23.0926 26.106 23.0065 26.1815 22.9235C26.4203 22.8467 26.6159 22.6761 26.5978 22.4571C28.5694 20.0795 29.6676 17.079 29.7044 13.969C29.7044 13.9536 29.6946 13.9444 29.6924 13.9306C29.6901 13.9167 29.7052 13.9044 29.7044 13.8898C29.6727 11.081 28.7728 8.35355 27.1323 6.09375C25.4917 3.83394 23.1937 2.15637 20.5636 1.29865ZM5.77003 7.38871C7.07837 5.13102 9.05987 3.35591 11.4271 2.32082C13.7944 1.28574 16.4243 1.04451 18.9355 1.63212C21.684 2.33505 24.1251 3.94649 25.8754 6.21339C27.6258 8.48028 28.5862 11.2742 28.6059 14.1565C28.5703 16.8121 27.7503 19.3955 26.2525 21.5712C25.9829 21.0956 25.608 20.6903 25.1578 20.3874C24.7075 20.0846 24.194 19.8924 23.6581 19.8262V11.2375C24.0711 11.1301 24.4401 10.8928 24.7124 10.5594C24.9847 10.226 25.1464 9.81358 25.1744 9.38108C25.1744 8.99467 25.0549 8.61804 24.833 8.30438C24.6111 7.99073 24.2979 7.7559 23.9377 7.63305C23.5136 7.49327 23.0587 7.48136 22.6281 7.59875C22.1975 7.71615 21.8095 7.95783 21.511 8.29461C21.294 8.53661 21.1458 8.8341 21.0823 9.15521C21.0188 9.47632 21.0425 9.80894 21.1507 10.1174C21.2589 10.4259 21.4477 10.6986 21.6966 10.9064C21.9456 11.1141 22.2455 11.249 22.5642 11.2966V12.5475C21.4369 14.6989 18.4217 15.286 16.2897 15.2483C14.529 15.2843 12.8009 14.7617 11.3457 13.7531C10.9688 13.4694 10.63 13.137 10.3378 12.7642C10.2585 12.6612 10.0802 12.3854 10.0658 12.3669V11.189C10.4734 11.0859 10.8385 10.8544 11.1091 10.5277C11.3796 10.2009 11.5418 9.79559 11.5723 9.36956C11.5719 8.98965 11.4527 8.61973 11.2318 8.31334C11.011 8.00695 10.7 7.77999 10.3439 7.66532C9.91913 7.5323 9.46613 7.52382 9.03688 7.64084C8.60763 7.75786 8.21953 7.99565 7.91717 8.32688C7.66203 8.60987 7.50354 8.96906 7.46529 9.35103C7.42704 9.733 7.51107 10.1173 7.70487 10.4468C7.84227 10.6677 8.02527 10.8555 8.24119 10.9972C8.45711 11.1389 8.70076 11.2311 8.95524 11.2674V12.526C8.95296 12.5413 8.95296 12.5568 8.95524 12.5721V19.8339C8.44489 19.9242 7.95901 20.123 7.52939 20.4173C7.09976 20.7116 6.73606 21.0949 6.46207 21.542C5.01296 19.5038 4.17629 17.0818 4.05345 14.5697C3.93062 12.0575 4.5269 9.5631 5.77003 7.38871ZM13.0599 22.9735C12.9964 22.1731 12.6636 21.4195 12.1175 20.8397C11.5714 20.2598 10.8455 19.8891 10.0621 19.7901V14.0082C10.9762 14.7456 12.0361 15.2735 13.1694 15.5557C16.1575 16.3402 19.8814 15.9913 22.3526 13.9759C22.4229 13.919 22.4924 13.856 22.5627 13.7946V19.8539C21.8021 19.9815 21.1016 20.3531 20.5633 20.9143C20.0251 21.4755 19.6774 22.197 19.5708 22.9735H13.0599ZM8.82227 8.52051C8.82227 8.52051 8.82227 8.52051 8.82907 8.5136C8.85173 8.48901 8.87364 8.46442 8.89782 8.44137C8.92445 8.42056 8.94969 8.39797 8.97337 8.37375L8.98244 8.36837L9.04816 8.32381L9.09198 8.29769L9.09954 8.29384L9.17509 8.26157H9.18265L9.2242 8.25235C9.23679 8.25038 9.24901 8.2465 9.26046 8.24083L9.25366 8.24544L9.31033 8.24006H9.36623C9.3889 8.24006 9.41156 8.24006 9.43423 8.24467C9.44103 8.24467 9.49391 8.25389 9.50978 8.25773C9.54907 8.26618 9.58533 8.27848 9.62688 8.28923C9.6353 8.29167 9.64389 8.29347 9.65257 8.29461C9.66015 8.29938 9.66797 8.30374 9.67599 8.30767C9.74822 8.34089 9.81836 8.37861 9.88602 8.42062C9.99185 8.49135 10.0862 8.57845 10.1656 8.67879C10.3557 8.90975 10.4637 9.1991 10.4723 9.50018C10.4718 9.64039 10.453 9.77993 10.4164 9.91509C10.3843 10.042 10.3289 10.1617 10.2532 10.2678C10.2351 10.2954 10.2154 10.3223 10.1958 10.3485C10.1935 10.3509 10.1917 10.3537 10.1905 10.3569L10.1761 10.3707C10.1308 10.4168 10.0847 10.4599 10.0379 10.5044L9.94042 10.569C9.90793 10.5836 9.87393 10.5966 9.84296 10.6128H9.83465C9.70353 10.5669 9.56228 10.56 9.42743 10.5928L9.39419 10.5836C9.38548 10.5811 9.37666 10.579 9.36774 10.5774L9.34508 10.5651C9.32166 10.5536 9.29673 10.5436 9.27331 10.5313C9.21416 10.5014 9.15688 10.4678 9.10181 10.4307C9.06242 10.4033 9.02527 10.3727 8.99075 10.3392C8.93312 10.2847 8.87958 10.2259 8.83058 10.1633C8.67717 9.95725 8.58408 9.71136 8.56203 9.45391C8.53998 9.19645 8.58985 8.93789 8.70592 8.70799C8.73841 8.64883 8.77543 8.59504 8.8132 8.53972L8.82227 8.52051ZM9.81349 20.6607C10.3406 20.7618 10.8251 21.0233 11.2029 21.4106C11.5806 21.798 11.8338 22.2929 11.9289 22.8298H7.5228C7.3989 22.6984 7.27953 22.5616 7.16016 22.4248C7.31542 21.853 7.67022 21.3584 8.15817 21.0334C8.64613 20.7084 9.2338 20.5753 9.81123 20.6591L9.81349 20.6607ZM22.3813 8.61272C22.4206 8.56431 22.4629 8.51974 22.5045 8.47287L22.512 8.46365C22.5385 8.44598 22.5627 8.42293 22.5876 8.40372C22.6125 8.38451 22.6299 8.37606 22.6503 8.36146L22.7054 8.33303L22.7394 8.31613L22.7893 8.30076L22.815 8.29538C22.8277 8.28897 22.8416 8.2853 22.8558 8.28462H22.8679H22.8641C22.8973 8.28078 22.9306 8.27848 22.9638 8.2754H22.9721C23.0061 8.2754 23.0416 8.2754 23.0756 8.28309C23.093 8.28309 23.1172 8.28923 23.1331 8.29231C23.2009 8.30946 23.2677 8.3305 23.3333 8.35531L23.3665 8.37068C23.4073 8.39296 23.4481 8.41525 23.4874 8.4406C23.5093 8.45443 23.5312 8.4698 23.5524 8.48517C23.5735 8.50053 23.6748 8.58659 23.6279 8.54356C23.6757 8.58905 23.7208 8.63728 23.7631 8.68801C23.9476 8.91331 24.0538 9.19419 24.0653 9.48711C24.0737 9.75731 23.9961 10.023 23.844 10.2447L23.8364 10.2562C23.8364 10.2562 23.8364 10.2562 23.8289 10.2639C23.8077 10.2893 23.7866 10.3146 23.7647 10.3408C23.7428 10.3669 23.7269 10.3784 23.7095 10.3984C23.7054 10.4025 23.7018 10.4072 23.6989 10.4122L23.6876 10.4191C23.6447 10.4553 23.5993 10.4882 23.5516 10.5175H23.5425C23.5259 10.5244 23.3831 10.6005 23.467 10.5551C23.5274 10.5229 23.4549 10.5498 23.402 10.5705C23.3877 10.5705 23.3431 10.5859 23.3318 10.5874C23.297 10.5874 23.263 10.592 23.2283 10.5951H23.2199C23.1852 10.5951 23.1504 10.5905 23.1164 10.5859C23.1028 10.5859 23.0741 10.5774 23.0613 10.5744C23.0351 10.5682 23.0099 10.5613 22.9857 10.5536C22.7651 10.4779 22.571 10.3382 22.4274 10.1518C22.2745 9.95171 22.182 9.71075 22.1614 9.45822C22.1407 9.20569 22.1927 8.9525 22.3111 8.72951C22.3277 8.70031 22.3451 8.67188 22.3624 8.64345C22.3647 8.63346 22.3738 8.62194 22.3821 8.61118L22.3813 8.61272ZM25.2394 22.8597H20.6739C20.7227 22.3093 20.9492 21.7907 21.3182 21.385C21.6872 20.9793 22.1779 20.7092 22.7138 20.6169C23.3276 20.5648 23.9399 20.7347 24.4426 21.0969C24.9453 21.459 25.3061 21.9899 25.4615 22.5962C25.3882 22.6822 25.3165 22.7729 25.2402 22.8582L25.2394 22.8597ZM8.43545 23.698H12.4895C12.633 23.6896 12.771 23.6392 12.8869 23.5528H19.6487C19.7621 23.6336 19.8986 23.6741 20.037 23.6681H24.4318C23.3224 24.6967 22.031 25.5016 20.6263 26.04C18.5725 26.7831 16.3614 26.9579 14.2193 26.5464C12.0773 26.1349 10.0812 25.1519 8.43545 23.698Z" fill="#46BCC4"/>
<path d="M9.25286 8.24083C9.24281 8.24197 9.23292 8.24429 9.22339 8.24774C9.18713 8.26004 9.2113 8.27233 9.25286 8.24083Z" fill="#46BCC4"/>
<path d="M22.8663 8.28001H22.858C22.8446 8.28445 22.831 8.28804 22.8172 8.29077C22.8059 8.30307 22.8406 8.30691 22.8663 8.28001Z" fill="#46BCC4"/>
<path d="M30.4133 14.0654C30.4133 21.8335 24.1175 28.1308 16.3512 28.1308C8.58498 28.1308 2.28917 21.8335 2.28917 14.0654C2.28917 6.2973 8.58498 0 16.3512 0C24.1175 0 30.4133 6.2973 30.4133 14.0654ZM4.21743 14.0654C4.21743 20.7683 9.64992 26.2021 16.3512 26.2021C23.0526 26.2021 28.4851 20.7683 28.4851 14.0654C28.4851 7.3625 23.0526 1.92871 16.3512 1.92871C9.64992 1.92871 4.21743 7.3625 4.21743 14.0654Z" fill="black"/>
<path d="M26.5995 31.3667C26.8755 31.7872 26.7597 32.3541 26.3255 32.6079C24.5683 33.6354 22.6431 34.3495 20.6361 34.7158C18.3302 35.1366 15.9632 35.0897 13.6757 34.5778C11.3883 34.0658 9.22699 33.0994 7.3202 31.7358C5.41341 30.3722 3.8 28.6392 2.57578 26.6398C1.35156 24.6404 0.541494 22.4153 0.193681 20.0967C-0.154132 17.7781 -0.0325988 15.4132 0.551064 13.1425C1.13473 10.8718 2.16862 8.74149 3.59134 6.87818C4.82962 5.25644 6.34048 3.86571 8.05412 2.76699C8.47749 2.49554 9.03499 2.64993 9.28398 3.08695C9.53297 3.52396 9.37896 4.07791 8.95724 4.35191C7.45477 5.3281 6.12879 6.55601 5.03862 7.98378C3.76398 9.65314 2.83771 11.5617 2.3148 13.596C1.79189 15.6304 1.683 17.7491 1.99461 19.8264C2.30622 21.9037 3.03197 23.8972 4.12877 25.6885C5.22556 27.4798 6.67103 29.0323 8.37935 30.254C10.0877 31.4757 12.024 32.3415 14.0734 32.8002C16.1227 33.2588 18.2433 33.3009 20.3093 32.9239C22.0762 32.6014 23.7723 31.978 25.3245 31.083C25.7602 30.8318 26.3235 30.9463 26.5995 31.3667Z" fill="black"/>
<path d="M30.7665 22.4327L31.0412 22.0206H33.3762L35.77 30.028H35.9662L38.36 22.0206H40.695L40.9697 22.4327L37.8499 32.3832H33.8863L30.7665 22.4327Z" fill="black"/>
<path d="M42.572 29.2037V25.2C42.572 23.0804 43.6316 22.0206 45.7507 22.0206H48.3015C50.4207 22.0206 51.4802 23.0804 51.4802 25.2V28.2028H45.2798V29.4C45.2798 29.8187 45.4891 30.028 45.9077 30.028H51.0878V31.5L49.9105 32.3832H45.7507C43.6316 32.3832 42.572 31.3234 42.572 29.2037ZM45.2798 26.1224H48.7724V25.0037C48.7724 24.585 48.5631 24.3757 48.1446 24.3757H45.9077C45.4891 24.3757 45.2798 24.585 45.2798 25.0037V26.1224Z" fill="black"/>
<path d="M54.1493 32.3832V22.0206H59.8788C61.9979 22.0206 63.0575 23.0804 63.0575 25.2V32.3832H60.3497V25.0037C60.3497 24.585 60.1404 24.3757 59.7219 24.3757H56.8571V32.3832H54.1493Z" fill="black"/>
<path d="M65.7211 29.2037V18.8411H68.4289V22.0206H71.8038V24.3757H68.4289V29.4C68.4289 29.8187 68.6382 30.028 69.0568 30.028H72V31.5L70.8227 32.3832H68.8998C66.7807 32.3832 65.7211 31.3234 65.7211 29.2037Z" fill="black"/>
</svg>
