<svg width="16" height="16" viewBox="0 0 16 16" fill="none" xmlns="http://www.w3.org/2000/svg">
<path d="M4.025 12.125C3.9 12.1 3.8 12.075 3.675 12.025C3.55 11.975 3.45 11.95 3.35 11.9C3.125 11.8 2.925 11.675 2.725 11.525C2.325 11.25 2 10.875 1.75 10.425C1.5 10 1.35 9.5 1.325 9.025C1.3 8.775 1.325 8.55 1.35 8.3C1.375 8.175 1.4 8.075 1.425 7.95C1.45 7.825 1.5 7.725 1.525 7.6L1.55 7.95C1.55 8.075 1.575 8.175 1.6 8.3C1.625 8.525 1.675 8.75 1.725 8.95C1.825 9.375 1.975 9.775 2.2 10.15C2.425 10.525 2.675 10.875 3 11.2C3.15 11.35 3.325 11.5 3.5 11.65C3.575 11.725 3.675 11.8 3.775 11.875L4.025 12.125ZM3.95 13.025C3.875 13.075 3.775 13.1 3.675 13.125C3.575 13.15 3.5 13.175 3.4 13.175C3.225 13.2 3.025 13.225 2.825 13.2C2.45 13.175 2.05 13.075 1.725 12.9C1.375 12.725 1.075 12.45 0.875 12.125C0.775 11.975 0.675 11.8 0.6 11.625C0.575 11.55 0.55 11.45 0.525 11.35C0.525 11.275 0.5 11.2 0.5 11.1C0.575 11.175 0.625 11.25 0.675 11.3C0.75 11.375 0.8 11.45 0.85 11.5C0.975 11.625 1.075 11.75 1.2 11.85C1.45 12.075 1.7 12.275 2 12.425C2.275 12.575 2.6 12.7 2.9 12.8C3.05 12.85 3.225 12.875 3.4 12.925C3.475 12.95 3.575 12.95 3.65 12.975C3.775 13 3.85 13 3.95 13.025ZM9.6 0.874994C9.725 0.899994 9.825 0.949994 9.95 0.999994C10.075 1.04999 10.175 1.09999 10.275 1.14999C10.5 1.27499 10.7 1.39999 10.9 1.54999C11.3 1.84999 11.625 2.24999 11.85 2.69999C12.075 3.14999 12.2 3.64999 12.2 4.12499C12.2 4.37499 12.175 4.59999 12.125 4.84999C12.1 4.97499 12.075 5.07499 12.025 5.19999C11.975 5.32499 11.95 5.42499 11.9 5.52499L11.875 5.17499C11.875 5.04999 11.875 4.94999 11.85 4.82499L11.775 4.14999C11.7 3.72499 11.55 3.29999 11.35 2.89999C11.15 2.49999 10.9 2.14999 10.6 1.82499C10.45 1.64999 10.275 1.49999 10.125 1.32499C10.05 1.24999 9.95 1.17499 9.85 1.09999L9.6 0.874994ZM11.775 0.774994C11.875 0.799994 11.95 0.824994 12.025 0.874994C12.1 0.899994 12.2 0.949994 12.275 0.999994C12.425 1.09999 12.575 1.19999 12.725 1.32499C13 1.57499 13.225 1.87499 13.35 2.22499C13.5 2.57499 13.55 2.94999 13.5 3.32499C13.475 3.49999 13.425 3.67499 13.375 3.84999C13.35 3.92499 13.3 4.02499 13.275 4.09999C13.225 4.17499 13.2 4.24999 13.125 4.32499V3.82499C13.125 3.64999 13.1 3.49999 13.1 3.34999C13.05 3.02499 13 2.72499 12.875 2.44999C12.75 2.14999 12.6 1.89999 12.425 1.62499C12.325 1.49999 12.225 1.34999 12.125 1.22499C12.075 1.14999 12.025 1.09999 11.95 1.02499C11.9 0.899994 11.825 0.824994 11.775 0.774994Z" fill="#42ADE2"/>
<path d="M2.49979 4.50001C1.99979 4.72501 1.82479 5.32501 2.04979 5.82501L5.19978 12.4L6.94978 11.575L3.79979 4.97501C3.57479 4.47501 2.99979 4.25001 2.49979 4.50001ZM10.7748 9.72501L12.6248 8.85001L9.02478 1.35001C8.77478 0.850009 8.17479 0.625009 7.64979 0.875009C7.14979 1.12501 6.92479 1.72501 7.17479 2.25001L10.7748 9.72501Z" fill="#FFDD67"/>
<path d="M7.6749 0.849995C7.6249 0.874995 7.5749 0.899994 7.5249 0.949994C7.9999 0.824994 8.4999 1.04999 8.7249 1.49999L12.3249 8.99999L12.6499 8.84999L9.0499 1.34999C8.7999 0.824995 8.1999 0.599995 7.6749 0.849995Z" fill="#EBA352"/>
<path d="M6.94998 11.55L8.87498 10.625L5.19998 2.97499C4.94998 2.44999 4.29998 2.19999 3.77498 2.44999C3.24998 2.69999 3.02498 3.34999 3.27498 3.87499L6.94998 11.55Z" fill="#FFDD67"/>
<path d="M3.775 2.47499C3.725 2.49999 3.675 2.52499 3.625 2.57499C4.1 2.44999 4.65 2.67499 4.875 3.14999L7.15 7.92499L7.7 8.24999L5.2 2.99999C4.95 2.44999 4.325 2.22499 3.775 2.47499Z" fill="#EBA352"/>
<path d="M8.57498 10.025L10.5 9.10002L6.82498 1.45001C6.57498 0.925014 5.92498 0.675014 5.39998 0.950014C4.87498 1.20001 4.64998 1.85001 4.89998 2.37501L8.57498 10.025Z" fill="#FFDD67"/>
<path d="M5.4001 0.924999C5.3501 0.949999 5.3001 0.999999 5.2501 1.025C5.7251 0.899999 6.2751 1.125 6.5001 1.6L9.0751 7L9.6251 7.325L6.8251 1.45C6.5751 0.899999 5.9251 0.674999 5.4001 0.924999ZM2.5001 4.5C2.4501 4.525 2.4001 4.55 2.3501 4.6C2.8001 4.475 3.2751 4.7 3.4751 5.15L5.3501 9.075L5.9001 9.4L3.8001 5C3.5751 4.475 3.0001 4.25 2.5001 4.5Z" fill="#EBA352"/>
<path d="M15.2 3.75001C14.525 3.22501 13.425 3.80001 12.875 5.60001C12.5 6.85001 12.45 7.22501 11.65 7.60001L11.2 6.67501C11.2 6.67501 4.09997 10.1 4.37497 10.65C4.37497 10.65 5.22497 13.3 6.67497 14.525C8.82497 16.375 13.85 14.4 14.075 9.62501C14.2 6.85001 15.925 4.32501 15.2 3.75001Z" fill="#FFDD67"/>
<path d="M15.2001 3.75001C15.0751 3.65001 14.9251 3.60001 14.7751 3.57501C14.8001 3.60001 14.8501 3.60001 14.8751 3.62501C15.6251 4.20001 14.8501 5.52501 14.4251 6.72501C14.0751 7.67501 13.7751 8.65001 13.8251 9.60001C14.0251 13.75 9.8501 15.725 7.3501 14.975C9.8001 16 14.3501 14.05 14.1501 9.72501C14.1001 8.77501 14.3751 7.85001 14.7501 6.85001C15.1501 5.65001 15.9251 4.32501 15.2001 3.75001Z" fill="#EBA352"/>
<path d="M11.875 7.5C10.325 7.675 8.05 9.9 9.65 12.325C8.475 9.875 10.4 8.225 11.625 7.65C11.75 7.55 11.875 7.5 11.875 7.5Z" fill="#EBA352"/>
</svg>
