<svg width="24" height="24" viewBox="0 0 24 24" fill="none" xmlns="http://www.w3.org/2000/svg">
<path d="M13.6004 12C13.6004 12.8837 12.884 13.6 12.0004 13.6C11.1167 13.6 10.4004 12.8837 10.4004 12C10.4004 11.1163 11.1167 10.4 12.0004 10.4C12.884 10.4 13.6004 11.1163 13.6004 12Z" fill="black"/>
<path d="M13.6004 5.6C13.6004 6.48366 12.884 7.2 12.0004 7.2C11.1167 7.2 10.4004 6.48366 10.4004 5.6C10.4004 4.71634 11.1167 4 12.0004 4C12.884 4 13.6004 4.71634 13.6004 5.6Z" fill="black"/>
<path d="M13.6004 18.4C13.6004 19.2837 12.884 20 12.0004 20C11.1167 20 10.4004 19.2837 10.4004 18.4C10.4004 17.5163 11.1167 16.8 12.0004 16.8C12.884 16.8 13.6004 17.5163 13.6004 18.4Z" fill="black"/>
</svg>
