<svg width="24" height="24" viewBox="0 0 24 24" fill="none" xmlns="http://www.w3.org/2000/svg">
<path d="M18.8889 16L18.2314 15.6392L18.8889 16ZM5.11091 16L4.45339 16.3608L5.11091 16ZM3.02511 8.20867L2.27606 8.24648L3.02511 8.20867ZM17.2549 18.2795L17.822 18.7703L17.2549 18.2795ZM6.74493 18.2795L7.31201 17.7886L6.74493 18.2795ZM20.9828 7.6369L21.7323 7.66561L20.9828 7.6369ZM15.5838 10.4706C15.8437 10.148 15.793 9.67589 15.4704 9.416C15.1479 9.15611 14.6757 9.20689 14.4158 9.52943L15.5838 10.4706ZM12.9783 12.5088L12.3943 12.0382L12.9783 12.5088ZM9.52135 12.5088L8.93734 12.9794V12.9794L9.52135 12.5088ZM9.58385 11.391C9.32396 11.0685 8.85181 11.0177 8.52927 11.2776C8.20673 11.5375 8.15595 12.0096 8.41584 12.3321L9.58385 11.391ZM20.2334 7.60819C20.1543 9.67293 19.7516 12.8686 18.2314 15.6392L19.5464 16.3608C21.2297 13.2931 21.6495 9.82667 21.7323 7.66561L20.2334 7.60819ZM18.2314 15.6392C17.8424 16.348 17.3039 17.0768 16.6878 17.7886L17.822 18.7703C18.4807 18.0092 19.0901 17.1923 19.5464 16.3608L18.2314 15.6392ZM7.31201 17.7886C6.69593 17.0768 6.15736 16.348 5.76842 15.6392L4.45339 16.3608C4.90968 17.1923 5.51908 18.0092 6.17784 18.7703L7.31201 17.7886ZM5.76842 15.6392C4.28993 12.9448 3.86961 10.0616 3.77415 8.17085L2.27606 8.24648C2.37759 10.2575 2.82424 13.3918 4.45339 16.3608L5.76842 15.6392ZM5.17053 6.83333H5.47939V5.33333H5.17053V6.83333ZM18.2287 6.25H18.8181V4.75H18.2287V6.25ZM15.7287 3.75C15.7287 5.13071 16.848 6.25 18.2287 6.25V4.75C17.6764 4.75 17.2287 4.30228 17.2287 3.75H15.7287ZM5.47939 6.83333C7.02119 6.83333 8.27106 5.58346 8.27106 4.04167H6.77106C6.77106 4.75503 6.19276 5.33333 5.47939 5.33333V6.83333ZM9.56273 1.25C8.02093 1.25 6.77106 2.49987 6.77106 4.04167H8.27106C8.27106 3.3283 8.84936 2.75 9.56273 2.75V1.25ZM3.77415 8.17085C3.73784 7.45149 4.33039 6.83333 5.17053 6.83333V5.33333C3.59447 5.33333 2.19056 6.55273 2.27606 8.24648L3.77415 8.17085ZM16.6878 17.7886C15.6777 18.9557 14.9956 19.7373 14.2986 20.2479C13.651 20.7223 12.9887 20.9607 11.9999 20.9607V22.4607C13.2962 22.4607 14.2714 22.1273 15.1851 21.4579C16.0493 20.8248 16.8522 19.8908 17.822 18.7703L16.6878 17.7886ZM6.17784 18.7703C7.14764 19.8908 7.95049 20.8248 8.81473 21.4579C9.72842 22.1273 10.7036 22.4607 11.9999 22.4607V20.9607C11.0111 20.9607 10.3487 20.7223 9.7012 20.2479C9.00421 19.7373 8.32213 18.9557 7.31201 17.7886L6.17784 18.7703ZM14.7287 2.75C15.281 2.75 15.7287 3.19772 15.7287 3.75H17.2287C17.2287 2.36929 16.1094 1.25 14.7287 1.25V2.75ZM21.7323 7.66561C21.7968 5.97999 20.4029 4.75 18.8181 4.75V6.25C19.6557 6.25 20.2615 6.8731 20.2334 7.60819L21.7323 7.66561ZM14.4158 9.52943L12.3943 12.0382L13.5623 12.9794L15.5838 10.4706L14.4158 9.52943ZM10.1054 12.0382L9.58385 11.391L8.41584 12.3321L8.93734 12.9794L10.1054 12.0382ZM12.3943 12.0382C11.9793 12.5533 11.7174 12.8755 11.4994 13.0791C11.397 13.1747 11.3315 13.2173 11.2939 13.2361C11.2646 13.2508 11.255 13.25 11.2498 13.25V14.75C11.7876 14.75 12.1953 14.4816 12.5232 14.1753C12.8375 13.8818 13.1764 13.4584 13.5623 12.9794L12.3943 12.0382ZM8.93734 12.9794C9.32332 13.4584 9.6622 13.8818 9.97649 14.1753C10.3044 14.4816 10.7121 14.75 11.2498 14.75V13.25C11.2446 13.25 11.2351 13.2508 11.2058 13.2361C11.1682 13.2173 11.1027 13.1747 11.0003 13.0791C10.7823 12.8755 10.5204 12.5533 10.1054 12.0382L8.93734 12.9794ZM9.56273 2.75H14.7287V1.25H9.56273V2.75Z" fill="black"/>
</svg>
