<svg width="24" height="24" viewBox="0 0 24 24" fill="none" xmlns="http://www.w3.org/2000/svg">
<path d="M17.4809 0H16.0322V24H17.4809C18.6811 24 19.654 23.0271 19.654 21.827V2.17304C19.654 0.972893 18.6811 0 17.4809 0Z" fill="#384F63"/>
<path d="M16.0318 0H6.51874C5.3186 0 4.3457 0.972893 4.3457 2.17304V21.827C4.3457 23.0271 5.3186 24 6.51874 24H16.0318C17.232 24 18.2049 23.0271 18.2049 21.827L14.1727 12L18.2049 2.17304C18.2049 0.972893 17.232 0 16.0318 0Z" fill="#506480"/>
<path d="M16.0322 22.5518H17.4809C17.881 22.5518 18.2053 22.2275 18.2053 21.8275V2.17356C18.2053 1.77353 17.881 1.44922 17.4809 1.44922H16.0322V22.5518Z" fill="#FABF1E"/>
<path d="M14.648 1.44922C14.2638 1.44922 13.8953 1.60186 13.6236 1.87354L13.0236 2.47359C12.7603 2.73561 12.3983 2.89791 11.9992 2.89791C11.6 2.89791 11.2381 2.73561 10.9758 2.47359C10.9752 2.47359 10.6565 2.15512 10.3746 1.8733C10.1029 1.60177 9.73458 1.44922 9.35044 1.44922H6.51829C6.11826 1.44922 5.79395 1.77353 5.79395 2.17356V21.8275C5.79395 22.2275 6.11826 22.5518 6.51829 22.5518H16.0314C16.4314 22.5518 16.7557 22.2275 16.7557 21.8275V2.17356C16.7557 1.77353 16.4314 1.44922 16.0314 1.44922H14.648Z" fill="#FFD754"/>
<path d="M11.9997 1.73768C12.1597 1.73768 12.2894 1.60796 12.2894 1.44794C12.2894 1.28792 12.1597 1.1582 11.9997 1.1582C11.8397 1.1582 11.71 1.28792 11.71 1.44794C11.71 1.60796 11.8397 1.73768 11.9997 1.73768Z" fill="#384F63"/>
</svg>
